<?xml version="1.0" encoding="UTF-8"?><svg xmlns="http://www.w3.org/2000/svg" xmlns:xlink="http://www.w3.org/1999/xlink" viewBox="0 0 50 50" version="1.1"><path d="M34.902 2c-2.039 0-3.804.55-5.027 1.094-1.2-.403-3.188-1.09-5.574-.594-1.39.242-2.668.816-3.84 1.695-1.93-.93-3.945-1.5-6.059-1.593-1.3-.102-6.601.5-8.504 3.296C5.2 7 4.5 8.398 4.2 10.098c-.3 1.5-.3 3.203.2 6.703.3 2.398.703 4 1.601 7.297.102.3.602 1.902 2.102 6.304.296.797.898 2.297 2.097 3.696.801 1 1.602 1.601 2.602 1.601 1.3 0 2.199-.898 3-1.898.058-.067.12-.14.18-.207-.075.117-.141.246-.18.406-.2 1 1 1.8 2 2.2.8.398 1.699.5 2.398.5.899 0 1.602-.2 2-.298.344-.117 1.086-.437 1.88-.965.034 2.555.058 5.57.12 6.262.301 2.602 1 4.399 2.301 5.399 1 .8 2.8.902 2.902.902C31.2 48 34 46.8 35.2 44.902c.602-.902.801-1.703 1-2.804.2-.598.399-4.098.5-4.797.137-1.106.242-2.196.348-3.254.66.172 1.473.355 2.355.355 1.598 0 3.7-1.101 4.098-1.304.8-.598 2.398-1.996 1.7-3.196-.4-.703-1-.703-2.5-.5 0 0-2.4.297-2.602.196-.145-.055-.368-.196-.618-.38.52-.804.98-1.6 1.52-2.316a42.18 42.18 0 0 0 2.402-5.5 44.892 44.892 0 0 0 1.696-5.902c.703-3 .902-4.398.5-6-.797-2.8-3.7-5.2-4.899-5.898C39.9 3.199 37.902 2 34.902 2zm0 2c2.5 0 4.2 1 5.098 1.398C41.102 6 43.602 8 43.8 9.898c.102 1.102.2 2.204-.5 5.102-.398 1.398-.8 3.2-1.702 5.7-.5 1.398-1.098 3.1-2.297 5.202-.031.051-.067.106-.098.16.117-.421.2-.761.2-.761.199-1 .199-1.801.097-3-.102-.602-.2-2.102-.2-2.703 0-.297.298-3.399.4-4.5.1-1.797-1-4-1.298-4.399-1.5-2.3-2.3-3.597-3.902-4.898a15.708 15.708 0 0 0-2.012-1.477c.735-.18 1.547-.324 2.414-.324zm-8.836.41c1.305.031 2.41.39 3.235.692 2.101.699 3.398 1.796 4 2.296 1.3 1.102 2 2.204 3.5 4.504.11.22.394.684.62 1.332-2.046-.187-3.405.532-4.222 1.266-1.199 1-1.101 2.5-1 3.598 0 .8.203 1.804 1.703 5.203.598 1.5 1.196 3.097 1.797 4.199a9.561 9.561 0 0 0 1.106 1.7c-.239.12-.48.277-.707.5-.598.698-.7 1.402-.899 2.702-.199 1-.398 3.098-.5 4.797 0 .7-.297 4.102-.398 4.602-.301 1-.403 1.5-.801 2.101-.7 1.098-2.898 2-4.2 1.899-.398 0-1 0-1.5-.399-1.1-.8-1.5-2.601-1.6-4-.102-1 0-8.203-.2-9.804-.102-.399-.2-1.399-1-2.098-.336-.281-1.031-.426-1.688-.523.008-.336.028-.672.09-.977.098-.602.297-.902.5-1.402.098-.297.297-.696.5-1.196.899-2.8.696-6.504.196-8.804-.098-.2-.5-1.797-1.899-2.696-1.5-.902-3.101-.402-4-.101a5.867 5.867 0 0 0-1.105.449c.062-.418.117-.84.207-1.25.398-2 .8-3.7 2.101-5.398C21.301 5.898 22.898 4.8 24.7 4.5a7.555 7.555 0 0 1 1.367-.09zm-12.347.176c.234-.004.433 0 .582.016 1.562.082 3.058.449 4.543 1.074-.184.203-.367.406-.543.625-1.7 2-2.102 4.097-2.5 6.199-.5 2.5-.602 5.098-.203 7.7l-.196 1.898c-.101 1-.304 2.902.797 4.902a8.66 8.66 0 0 0 1.281 1.707A51.287 51.287 0 0 1 14.3 32.5c-.6.7-1.1 1.2-1.5 1.2-.1 0-.5-.2-1.1-.9-1.102-1.198-1.5-2.5-1.7-3-1.2-3.6-1.898-5.902-2-6.202-.8-3.2-1.2-4.797-1.602-7.098-.5-3.2-.5-4.8-.199-6.098C6.5 9 7 7.898 7.5 7.102c1.227-1.926 4.594-2.473 6.219-2.516zm22.945 10.539c.32 0 .668.04 1.035.117-.011.934-.398 3.863-.398 4.258 0 .8.199 2.398.199 3 .102 1.102.102 1.7 0 2.5 0 0-.148.715-.3 1.223-.466-1.051-.981-2.305-1.602-3.723-1.5-3.398-1.598-4.098-1.598-4.598 0-.703 0-1.601.598-2 .562-.5 1.246-.77 2.066-.777zm-15.523.293c.199.023.382.082.558.18.801.402 1 1.402 1 1.402.5 2.2.7 5.5-.101 7.7-.098.398-.297.698-.399 1-.199.5-.398 1-.601 1.898-.051.37-.075.738-.086 1.105-.692-.144-1.344-.39-1.813-.703-.8-.398-1.398-1.102-1.797-1.902-.703-1.5-.601-2.899-.5-3.696l.196-2.304a24.481 24.481 0 0 1-.192-3.375 4.794 4.794 0 0 1 1.895-1.024c.601-.148 1.258-.355 1.84-.281zm14.746.672a2.84 2.84 0 0 0-.688.11c-.398.1-.5.1-.601.3-.098.2.203.5.304.7.098 0 .399.3.797.202.301-.101.5-.3.602-.402.101-.102.5-.602.199-.8-.102-.102-.352-.126-.613-.11zm-14.973.726a.832.832 0 0 0-.316.086c-.098 0-.297.098-.399.297-.101.2 0 .399.102.5.199.301.5.602 1 .602.101 0 .5 0 .797-.301 0 0 .304-.3.304-.598-.101-.203-.3-.3-.601-.402-.227-.074-.563-.207-.887-.184zm-1.84 13.086c.613.328 1.352.594 2.16.778-.214.43-.523.785-.832 1.02-.703.5-1.601.8-2.5 1-.203 0-.3.1-.5.1-.484.138-.953.29-1.273.622.98-1.09 1.965-2.293 2.945-3.52zm19.281.801c.438.328.868.57 1.243.7.601.199 1.101.199 2.902 0-.3.296-1.2.796-2.5 1-.836.081-1.875-.118-2.719-.36.078-.566.168-.89.317-1.043.054-.05.386-.152.757-.297zm-15.058.3c.207.036.371.063.402.095.2.203.301.703.301.902.012.172.02.605.027.906-.824.965-2.148 1.5-2.43 1.594-.398.2-1.597.398-2.796 0 1-.3 2-.598 2.797-1.2.699-.5 1.3-1.296 1.699-2.296z" id="surface1"/><metadata><rdf:RDF xmlns:rdf="http://www.w3.org/1999/02/22-rdf-syntax-ns#" xmlns:rdfs="http://www.w3.org/2000/01/rdf-schema#" xmlns:dc="http://purl.org/dc/elements/1.1/"><rdf:Description about="https://iconscout.com/legal#licenses" dc:title="postgresql" dc:description="postgresql" dc:publisher="Iconscout" dc:date="2017-12-09" dc:format="image/svg+xml" dc:language="en"><dc:creator><rdf:Bag><rdf:li>Icons8</rdf:li></rdf:Bag></dc:creator></rdf:Description></rdf:RDF></metadata></svg>